<svg width="44" height="42" viewBox="0 0 44 42" fill="none" xmlns="http://www.w3.org/2000/svg">
<path d="M23 21H27C29.2 21 44 20.9 44 2C24.9 4.5 23 21 23 21Z" fill="white"/>
<path d="M2 40H6C8.2 40 23 39.9 23 21C3.9 23.5 2 40 2 40Z" fill="white"/>
<path d="M41.6816 40.9886L41.5498 36.9908C41.4773 34.792 40.8897 20.0033 22 20.6261C25.128 39.6333 41.6816 40.9886 41.6816 40.9886Z" fill="white"/>
<path d="M22.6123 20.6248L21.8596 16.6963C21.4456 14.5356 18.5624 0.0188248 2.19345e-05 3.57535C6.04952 21.8637 22.6123 20.6248 22.6123 20.6248Z" fill="white"/>
</svg>
