<svg width="57" height="59" viewBox="0 0 57 59" fill="none" xmlns="http://www.w3.org/2000/svg">
<path d="M36.8125 28.2708C36.8125 33.1875 30.875 36.875 30.875 40.5625H26.125C26.125 36.875 20.1875 33.1875 20.1875 28.2708C20.1875 23.5262 23.9163 19.6667 28.5 19.6667C33.0838 19.6667 36.8125 23.5262 36.8125 28.2708ZM30.875 43.0208H26.125V46.7083H30.875V43.0208ZM52.25 29.5C52.25 22.715 49.59 16.5692 45.2913 12.1196L42.7738 14.7254C44.6504 16.664 46.1388 18.9671 47.1536 21.5024C48.1685 24.0378 48.6897 26.7556 48.6875 29.5C48.6875 35.2525 46.4313 40.4887 42.7738 44.2746L45.2913 46.8804C47.5001 44.6007 49.2519 41.8916 50.4461 38.9089C51.6403 35.9262 52.2534 32.7287 52.25 29.5ZM8.31251 29.5C8.31251 23.7475 10.5688 18.5112 14.2263 14.7254L11.7088 12.1196C9.49995 14.3993 7.74812 17.1084 6.55391 20.091C5.3597 23.0737 4.74666 26.2713 4.75001 29.5C4.75001 36.285 7.41001 42.4308 11.7088 46.8804L14.2263 44.2746C12.3496 42.336 10.8612 40.0329 9.84639 37.4975C8.83156 34.9622 8.31031 32.2443 8.31251 29.5ZM41.5625 29.5C41.5625 33.2367 40.09 36.6046 37.7388 39.0629L40.2563 41.6687C41.8025 40.0726 43.0287 38.1758 43.8643 36.0875C44.6998 33.9991 45.1283 31.7604 45.125 29.5C45.125 24.7554 43.2725 20.4533 40.2563 17.3312L37.7388 19.9371C40.09 22.3954 41.5625 25.7633 41.5625 29.5ZM16.7438 41.6687L19.2613 39.0629C16.8863 36.6046 15.4375 33.2367 15.4375 29.5C15.4375 25.7633 16.91 22.3954 19.2613 19.9371L16.7438 17.3312C15.1975 18.9274 13.9713 20.8241 13.1358 22.9125C12.3002 25.0009 11.8717 27.2396 11.875 29.5C11.875 34.2446 13.7275 38.5467 16.7438 41.6687Z" fill="white"/>
</svg>
