<svg width="265" height="450" viewBox="0 0 265 450" fill="none" xmlns="http://www.w3.org/2000/svg">
<g id="logo">
<path id="card" d="M0 27.2C0 12.2 12.2 0 27.2 0H236.8C252 0 264.2 12.2 264.2 27.2V421.9C264.2 436.9 252 449.1 236.8 449.1H27.2C12.2 449.1 0 436.9 0 421.9V27.2Z" fill="url(#paint0_linear)"/>
<path id="A" d="M130.784 127.552L67.712 321.088V320.8C66.56 323.68 64.928 326.08 62.816 328C60.896 329.728 58.496 330.592 55.616 330.592C54.08 330.592 52.544 330.4 51.008 330.016C49.664 329.824 48.224 329.536 46.688 329.152H46.976C36.032 325.696 32 319.552 34.88 310.72L100.544 111.136C101.504 108.064 103.136 105.472 105.44 103.36C107.936 101.248 110.816 100 114.08 99.616C117.344 99.04 120.512 98.656 123.584 98.464C126.656 98.08 129.056 97.888 130.784 97.888C132.512 97.888 134.912 98.08 137.984 98.464C141.056 98.656 144.224 98.944 147.488 99.328C150.176 99.712 152.768 101.152 155.264 103.648C157.952 106.144 159.968 108.64 161.312 111.136C172.064 144.16 182.912 177.472 193.856 211.072C204.992 244.48 215.936 277.696 226.688 310.72C229.376 319.552 225.344 325.696 214.592 329.152C213.056 329.536 211.616 329.824 210.272 330.016C209.12 330.4 207.776 330.592 206.24 330.592C203.552 330.592 201.056 329.728 198.752 328C196.64 326.08 195.104 323.68 194.144 320.8V321.088L130.784 127.552ZM152.384 258.88C152.384 265.024 150.176 270.304 145.76 274.72C141.536 278.944 136.352 281.056 130.208 281.056C124.064 281.056 118.88 278.944 114.656 274.72C110.432 270.304 108.32 265.024 108.32 258.88C108.32 252.736 110.432 247.552 114.656 243.328C118.88 238.912 124.064 236.704 130.208 236.704C136.352 236.704 141.536 238.912 145.76 243.328C150.176 247.552 152.384 252.736 152.384 258.88Z" fill="url(#paint1_linear)"/>
</g>
<defs>
<linearGradient id="paint0_linear" x1="132.1" y1="-7.01283e-09" x2="132.5" y2="449.5" gradientUnits="userSpaceOnUse">
<stop stop-color="#0D124C"/>
<stop offset="0.213542" stop-color="#0D124C"/>
<stop offset="0.447917" stop-color="#425CF9" stop-opacity="0.93"/>
<stop offset="0.702925" stop-color="#0D124C"/>
<stop offset="0.703025" stop-color="#0D124C"/>
<stop offset="1" stop-color="#2348D8" stop-opacity="0.878997"/>
</linearGradient>
<linearGradient id="paint1_linear" x1="82.5" y1="45" x2="82.5" y2="405" gradientUnits="userSpaceOnUse">
<stop stop-color="#C78C48"/>
<stop offset="0.195367" stop-color="#CF9147"/>
<stop offset="0.455389" stop-color="#F4D188"/>
<stop offset="0.489305" stop-color="#CF9348"/>
</linearGradient>
</defs>
</svg>
